:version 1.10
:name ASF
:units
  mass 1
  length 1
  angle deg
:documentation
  ASF file generated by Kaydara
:root
  axis xyz
  order  tx ty tz rx ry rz
  position 0 0 0
  orientation 0 0 0
:bonedata
  begin
    id 1
    name RightUpLegDummy
    direction -1 2.30186e-007 8.31532e-007
    length 4.46685
    axis 0 0 0 xyz
  end
  begin
    id 2
    name RightUpLeg
    direction -2.30187e-007 -1 1.24343e-010
    length 16.4045
    axis -3.49089 -0.000906625 0.000286804 xyz
    dof rx ry rz
  end
  begin
    id 3
    name RightLeg
    direction -2.30181e-007 -1 -4.17157e-009
    length 17.5097
    axis 3.68512 0.0193738 -0.131023 xyz
    dof rx ry rz
  end
  begin
    id 4
    name RightFoot
    direction 8.31421e-007 -4.51202e-011 1
    length 6.49508
    axis 4.81691e-005 -0.120479 -0.188788 xyz
    dof rx ry rz
  end
  begin
    id 5
    name RightToes
    direction 0.00124746 -0.014064 0.9999
    length 3.85082
    axis 0.000481921 0.542163 -0.142578 xyz
    dof rx ry rz
  end
  begin
    id 6
    name SpineDummy
    direction 0.0717043 0.9409 -0.331007
    length 10.0032
    axis 0 0 0 xyz
  end
  begin
    id 7
    name Spine
    direction 2.30186e-007 1 4.58806e-011
    length 9.84055
    axis -0.001389 0.000121418 2.40972e-006 xyz
    dof rx ry rz
  end
  begin
    id 8
    name Spine1
    direction 0 0 0
    length 0
    axis -0.001389 0.000121451 1.30017e-006 xyz
    dof rx ry rz
  end
  begin
    id 9
    name HEadDummy
    direction -0.00347485 0.950688 -0.310128
    length 8.00997
    axis -0.001389 0.000121451 1.30017e-006 xyz
  end
  begin
    id 10
    name HEad
    direction -0.0222688 0.980941 0.193023
    length 5.12695
    axis -0.001389 0.000121451 1.30017e-006 xyz
    dof rx ry rz
  end
  begin
    id 11
    name LeftShoulder1Dummy
    direction 0.988871 0.146793 -0.0242004
    length 3.5792
    axis -0.001389 0.000121451 1.30017e-006 xyz
  end
  begin
    id 12
    name LeftShoulder1
    direction 0.993832 0.108932 0.020779
    length 4.16823
    axis -0.001389 0.000121451 1.30017e-006 xyz
    dof rx ry rz
  end
  begin
    id 13
    name LeftArm
    direction 1 3.44807e-006 -8.31404e-007
    length 9.91437
    axis -23.1894 0.134784 0.967509 xyz
    dof rx ry rz
  end
  begin
    id 14
    name LeftForeArm
    direction 1 3.44842e-006 -8.31581e-007
    length 9.08575
    axis -9.91835 -0.06569 -0.177793 xyz
    dof rx ry rz
  end
  begin
    id 15
    name LeftHand
    direction 0.992938 -0.0411636 0.11126
    length 5.32135
    axis -0.00960232 -0.00340091 0.185173 xyz
    dof rx ry rz
  end
  begin
    id 16
    name RightShoulderDummy
    direction -0.988871 0.146793 -0.0241962
    length 3.5792
    axis -0.001389 0.000121451 1.30017e-006 xyz
  end
  begin
    id 17
    name RightShoulder
    direction -0.993832 0.108933 0.0207785
    length 4.16823
    axis 0.215806 0.000203643 -0.0068026 xyz
    dof rx ry rz
  end
  begin
    id 18
    name RightArm
    direction -1 3.90912e-006 8.31284e-007
    length 9.91437
    axis -23.2009 -0.134239 -0.964101 xyz
    dof rx ry rz
  end
  begin
    id 19
    name RightForeArm
    direction -1 3.90882e-006 8.31502e-007
    length 9.08575
    axis -9.92322 0.0658061 0.178867 xyz
    dof rx ry rz
  end
  begin
    id 20
    name RightHand
    direction -0.992843 -0.0414603 0.112003
    length 5.28593
    axis -0.00960638 0.00330671 -0.185228 xyz
    dof rx ry rz
  end
  begin
    id 21
    name LeftUpLegDummy
    direction 1 -2.30186e-007 -8.31532e-007
    length 4.46685
    axis 0 0 0 xyz
  end
  begin
    id 22
    name LeftUpLeg
    direction -2.30187e-007 -1 6.00931e-010
    length 16.4045
    axis -3.48766 0.00143442 -0.000524262 xyz
    dof rx ry rz
  end
  begin
    id 23
    name LeftLeg
    direction -2.30187e-007 -1 1.6669e-009
    length 17.5097
    axis 3.68178 -0.00654042 -0.000285133 xyz
    dof rx ry rz
  end
  begin
    id 24
    name LeftFoot
    direction 8.31532e-007 -4.54478e-011 1
    length 6.49508
    axis 1.87233e-006 4.66016e-005 -8.6538e-006 xyz
    dof rx ry rz
  end
  begin
    id 25
    name LeftToes
    direction 0.00818058 -0.00485161 0.999955
    length 3.85048
    axis 1.06247e-005 4.65869e-005 -8.65513e-006 xyz
    dof rx ry rz
  end
:hierarchy
  begin
    root RightUpLegDummy SpineDummy LeftUpLegDummy
    RightUpLegDummy RightUpLeg
    RightUpLeg RightLeg
    RightLeg RightFoot
    RightFoot RightToes
    SpineDummy Spine
    Spine Spine1
    Spine1 HEadDummy LeftShoulder1Dummy RightShoulderDummy
    HEadDummy HEad
    LeftShoulder1Dummy LeftShoulder1
    LeftShoulder1 LeftArm
    LeftArm LeftForeArm
    LeftForeArm LeftHand
    RightShoulderDummy RightShoulder
    RightShoulder RightArm
    RightArm RightForeArm
    RightForeArm RightHand
    LeftUpLegDummy LeftUpLeg
    LeftUpLeg LeftLeg
    LeftLeg LeftFoot
    LeftFoot LeftToes
  end

:SAMPLES-PER-SECOND 30
:FULLY-SPECIFIED
:DEGREES
83
root  2.12979 33.5129 0.188398 -178.411 -7.15327 179.625
RightUpLeg  -0.851716 -4.74181 0.451705
RightLeg  11.7717 -6.4495 -0.912273
RightFoot  -1.13452 -0.00406577 0.121544
RightToes  -23.6634 -0.105389 -0.20857
Spine  3.25843 -1.79661 0.0702459
Spine1  6.19517 -3.60956 0.0258272
HEad  25.8902 17.9367 -0.341486
LeftShoulder1  0 -2.42657e-020 -4.95415e-022
LeftArm  -72.2497 13.5623 -93.1743
LeftForeArm  61.9978 -11.8031 -2.0609
LeftHand  0.782528 -10.0893 -9.2235
RightShoulder  0 2.42657e-020 1.07489e-018
RightArm  -76.9748 -14.6159 93.2099
RightForeArm  55.4182 10.65 1.86491
RightHand  0.270634 24.8326 1.59961
LeftUpLeg  -3.30499 1.66877 2.98517
LeftLeg  14.4417 -2.87885 -0.548516
LeftFoot  -0.629104 0.00186858 -0.0065377
LeftToes  -16.798 1.18758e-006 1.19596e-007
84
root  2.05248 33.5385 0.32361 -178.318 -7.98947 179.532
RightUpLeg  -1.04788 -6.15231 0.0950992
RightLeg  11.7523 -5.87532 -0.82931
RightFoot  -0.845586 -0.00101225 0.0741357
RightToes  -24.2917 -0.107013 -0.209821
Spine  3.41659 -1.56795 0.24275
Spine1  6.50081 -3.15965 0.347023
HEad  27.456 19.6319 -1.63603
LeftShoulder1  0 -2.42657e-020 -4.95415e-022
LeftArm  -71.2579 12.4878 -95.0174
LeftForeArm  61.3878 -11.4672 -2.00081
LeftHand  0.732978 -9.83322 -8.88141
RightShoulder  0 2.42657e-020 1.07489e-018
RightArm  -69.3124 -14.9585 91.06
RightForeArm  54.4115 11.2518 1.97656
RightHand  0.26267 23.3409 1.64209
LeftUpLeg  -4.12704 -0.32297 2.54246
LeftLeg  15.1818 -1.70262 -0.348118
LeftFoot  -0.646585 0.00294069 -0.0231989
LeftToes  -16.3027 1.18758e-006 1.19596e-007
85
root  1.95893 33.5605 0.50636 -178.246 -8.92163 179.348
RightUpLeg  -1.29601 -6.76706 -0.232666
RightLeg  11.8346 -6.20333 -0.884527
RightFoot  -0.727164 -0.000118097 0.0602531
RightToes  -24.4444 -0.108955 -0.21156
Spine  3.70247 -1.22329 0.291569
Spine1  7.0558 -2.48113 0.456668
HEad  28.8133 21.0928 -2.34287
LeftShoulder1  0 -2.42657e-020 -4.95415e-022
LeftArm  -68.4894 11.0169 -95.4941
LeftForeArm  64.7294 -11.3193 -1.96602
LeftHand  0.643461 -9.53811 -8.07696
RightShoulder  0 2.42657e-020 1.07489e-018
RightArm  -63.9639 -14.9479 88.9536
RightForeArm  54.4731 12.0938 2.13072
RightHand  0.542614 22.9122 3.0479
LeftUpLeg  -5.3164 -0.41764 2.21846
LeftLeg  16.4885 -2.43362 -0.554947
LeftFoot  -0.81047 0.00227986 -0.0129293
LeftToes  -15.4924 1.18758e-006 1.19596e-007
86
root  1.86585 33.575 0.753483 -177.892 -9.71136 179.371
RightUpLeg  -1.88442 -7.97139 -0.441827
RightLeg  11.7163 -5.80056 -0.815068
RightFoot  -0.333964 0.00301357 0.01163
RightToes  -25.0295 -0.111234 -0.21598
Spine  3.92021 -0.785379 0.354156
Spine1  7.4732 -1.61733 0.615235
HEad  29.9228 22.8868 -3.23458
LeftShoulder1  0 -2.42657e-020 -4.95415e-022
LeftArm  -63.5526 9.73089 -94.7848
LeftForeArm  67.8154 -11.3471 -1.96352
LeftHand  0.54038 -9.40517 -6.93703
RightShoulder  0 2.42657e-020 1.07489e-018
RightArm  -61.8115 -14.2042 87.0088
RightForeArm  57.9603 11.7925 2.06834
RightHand  0.633989 23.2069 3.45783
LeftUpLeg  -7.09894 0.313081 2.14523
LeftLeg  18.1907 -3.77644 -0.97861
LeftFoot  -1.05572 0.000181415 0.0196818
LeftToes  -14.8822 1.18758e-006 1.19596e-007
87
root  1.74258 33.5871 1.0208 -177.3 -11.1136 179.401
RightUpLeg  -2.4328 -9.08517 -0.584544
RightLeg  11.1976 -6.02621 -0.791164
RightFoot  0.201873 0.00660543 -0.0441403
RightToes  -25.8281 -0.116273 -0.22195
Spine  4.0833 -0.512394 0.464845
Spine1  7.7868 -1.08538 0.872883
HEad  30.9674 25.0078 -4.52726
LeftShoulder1  0 -2.42657e-020 -4.95415e-022
LeftArm  -57.3891 8.83819 -94.0373
LeftForeArm  65.6931 -12.1307 -2.11229
LeftHand  0.493849 -10.0586 -5.98124
RightShoulder  0 2.42657e-020 1.07489e-018
RightArm  -58.5964 -13.5221 85.4693
RightForeArm  58.8001 11.6553 2.04142
RightHand  0.562606 23.2025 3.11084
LeftUpLeg  -9.23279 0.0203485 1.95344
LeftLeg  19.9031 -4.69174 -1.36553
LeftFoot  -1.2588 0.000618667 0.0563072
LeftToes  -14.722 1.18758e-006 1.19596e-007
88
root  1.57152 33.5998 1.28845 -176.809 -13.102 179.365
RightUpLeg  -3.05753 -10.9658 -0.919843
RightLeg  11.2987 -6.05334 -0.805574
RightFoot  0.40619 0.00782332 -0.0630508
RightToes  -26.3424 -0.120107 -0.225759
Spine  4.27318 -0.340605 0.564181
Spine1  8.15395 -0.756991 1.11102
HEad  32.3719 27.1917 -5.6081
LeftShoulder1  0 -2.42657e-020 -4.95415e-022
LeftArm  -54.5579 7.99726 -93.648
LeftForeArm  63.8178 -13.3872 -2.34884
LeftHand  0.565918 -10.4017 -6.58566
RightShoulder  0 2.42657e-020 1.07489e-018
RightArm  -55.991 -12.9726 84.4949
RightForeArm  57.5781 11.8212 2.0744
RightHand  0.480417 23.3455 2.69584
LeftUpLeg  -11.3896 -0.18904 1.6586
LeftLeg  21.7288 -5.66641 -1.8452
LeftFoot  -1.48554 0.00234713 0.105772
LeftToes  -15.6743 1.18758e-006 1.19596e-007
89
root  1.39524 33.6157 1.53057 -176.463 -15.0492 179.293
RightUpLeg  -3.21681 -12.4113 -1.26358
RightLeg  10.9021 -6.497 -0.818729
RightFoot  0.867155 0.0112252 -0.115874
RightToes  -27.0045 -0.123847 -0.230617
Spine  4.51917 -0.119496 0.673964
Spine1  8.63551 -0.318796 1.35066
HEad  33.5754 29.2322 -6.6488
LeftShoulder1  0 -2.42657e-020 -4.95415e-022
LeftArm  -52.5207 7.00819 -93.4003
LeftForeArm  61.8806 -14.3119 -2.52573
LeftHand  0.564057 -10.2125 -6.68052
RightShoulder  0 2.42657e-020 1.07489e-018
RightArm  -52.6946 -12.4804 83.8682
RightForeArm  56.1331 12.4838 2.19923
RightHand  0.330328 23.2893 1.97332
LeftUpLeg  -13.1875 0.799266 1.45005
LeftLeg  23.128 -5.1593 -1.82124
LeftFoot  -1.98587 0.00247047 0.14253
LeftToes  -16.5716 1.18758e-006 1.19596e-007
90
root  1.20891 33.6285 1.76634 -176.099 -16.8331 179.164
RightUpLeg  -3.52208 -13.7742 -1.68959
RightLeg  10.8111 -6.83116 -0.849651
RightFoot  1.23056 0.0140128 -0.159161
RightToes  -27.7151 -0.128508 -0.235776
Spine  4.79437 0.162037 0.733258
Spine1  9.17465 0.262237 1.4595
HEad  34.422 30.8228 -7.38406
LeftShoulder1  0 -2.42657e-020 -4.95415e-022
LeftArm  -50.9431 6.18226 -93.2873
LeftForeArm  60.3463 -15.4031 -2.7346
LeftHand  0.534355 -10.1305 -6.39743
RightShoulder  0 2.42657e-020 1.07489e-018
RightArm  -48.2049 -11.7658 83.4883
RightForeArm  55.3486 13.2993 2.35169
RightHand  0.257945 23.5604 1.60724
LeftUpLeg  -14.6374 2.61042 1.39524
LeftLeg  23.7225 -2.10413 -0.77016
LeftFoot  -2.60206 0.00123803 0.0545029
LeftToes  -15.4839 1.18758e-006 1.19596e-007
91
root  0.997932 33.6338 1.97738 -175.735 -18.4774 178.989
RightUpLeg  -3.85385 -15.0889 -2.18958
RightLeg  10.9145 -7.10529 -0.896589
RightFoot  1.47784 0.0157276 -0.185789
RightToes  -28.406 -0.1331 -0.240736
Spine  5.12641 0.466317 0.735818
Spine1  9.82502 0.914951 1.42194
HEad  34.9186 31.8734 -7.96333
LeftShoulder1  0 -2.42657e-020 -4.95415e-022
LeftArm  -50.1699 5.42283 -93.2463
LeftForeArm  58.5899 -16.616 -2.96942
LeftHand  0.533525 -10.1348 -6.38549
RightShoulder  0 2.42657e-020 1.07489e-018
RightArm  -42.1835 -10.8444 83.257
RightForeArm  53.1328 14.6188 2.60244
RightHand  0.368506 23.5542 2.13791
LeftUpLeg  -15.7486 5.04929 1.59981
LeftLeg  23.6196 1.33691 0.482066
LeftFoot  -1.72828 -0.00137311 -0.0910442
LeftToes  -14.2985 1.18758e-006 1.19596e-007
92
root  0.758353 33.6223 2.16412 -175.394 -20.3013 178.935
RightUpLeg  -4.04227 -16.189 -2.59242
RightLeg  10.9311 -7.71651 -0.975522
RightFoot  1.73027 0.0180539 -0.221913
RightToes  -29.2319 -0.138668 -0.246592
Spine  5.44085 0.722462 0.714508
Spine1  10.4461 1.49062 1.30724
HEad  35.3189 32.4202 -8.3498
LeftShoulder1  0 -2.42657e-020 -4.95415e-022
LeftArm  -49.2607 4.76524 -93.07
LeftForeArm  56.979 -17.6511 -3.1724
LeftHand  0.54258 -10.2176 -6.43763
RightShoulder  0 2.42657e-020 1.07489e-018
RightArm  -36.6409 -9.54283 83.2516
RightForeArm  52.1894 15.7167 2.81164
RightHand  0.282352 23.3964 1.73405
LeftUpLeg  -16.8312 7.59382 2.27449
LeftLeg  23.1893 2.67794 0.945502
LeftFoot  0.733203 7.76502e-005 -0.0121448
LeftToes  -14.8771 1.18758e-006 1.19596e-007
93
root  0.473061 33.5845 2.31824 -175.158 -22.0703 178.935
RightUpLeg  -4.18868 -17.6369 -3.07165
RightLeg  11.2545 -7.96692 -1.05258
RightFoot  1.72449 0.0170882 -0.206918
RightToes  -30.0358 -0.144168 -0.252215
Spine  5.75773 0.983463 0.648059
Spine1  11.0598 2.09687 1.07803
HEad  35.7816 32.4514 -8.35647
LeftShoulder1  0 -2.42657e-020 -4.95415e-022
LeftArm  -48.6889 4.41924 -92.8336
LeftForeArm  55.5481 -18.8106 -3.40176
LeftHand  0.580706 -10.2315 -6.85425
RightShoulder  0 2.42657e-020 1.07489e-018
RightArm  -31.8936 -7.93197 83.6189
RightForeArm  53.1025 16.7639 3.01002
RightHand  0.0989525 23.3572 0.848957
LeftUpLeg  -17.8978 8.41204 3.54554
LeftLeg  22.9572 2.15619 0.751083
LeftFoot  0.697392 0.00273431 -0.0233512
LeftToes  -16.1416 1.18758e-006 1.19596e-007
94
root  0.142927 33.519 2.43855 -174.99 -24.033 179.089
RightUpLeg  -4.23039 -19.0232 -3.48959
RightLeg  11.7 -8.39106 -1.17445
RightFoot  1.63548 0.0152434 -0.17827
RightToes  -30.8387 -0.149739 -0.257753
Spine  6.05664 1.22001 0.573026
Spine1  11.6196 2.67215 0.810521
HEad  36.1692 31.9503 -7.93238
LeftShoulder1  0 -2.42657e-020 -4.95415e-022
LeftArm  -48.3159 4.00992 -92.5146
LeftForeArm  54.0786 -19.625 -3.56568
LeftHand  0.575119 -10.1537 -6.84138
RightShoulder  0 2.42657e-020 1.07489e-018
RightArm  -26.3472 -6.29079 83.9045
RightForeArm  52.8578 17.9577 3.24139
RightHand  0.0491365 23.4222 0.607213
LeftUpLeg  -18.9847 7.91656 5.39759
LeftLeg  22.506 1.52233 0.516201
LeftFoot  0.573489 0.00441864 -0.0423461
LeftToes  -16.5305 1.18758e-006 1.19596e-007
